<svg width="1440" height="1024" viewBox="0 0 1440 1024" fill="none" xmlns="http://www.w3.org/2000/svg">
<g clip-path="url(#clip0_23_3)">
<rect width="1440" height="1024" fill="black"/>
<rect x="360.173" y="123" width="44.3766" height="161.039" transform="rotate(45 360.173 123)" fill="url(#paint0_linear_23_3)"/>
<rect x="168.854" y="472.552" width="8.6172" height="269.17" transform="rotate(45 168.854 472.552)" fill="url(#paint1_linear_23_3)"/>
<rect x="89.9651" y="634" width="9.69068" height="206" transform="rotate(45 89.9651 634)" fill="url(#paint2_linear_23_3)"/>
<rect x="294.821" y="666.856" width="3.16444" height="294.365" transform="rotate(45 294.821 666.856)" fill="url(#paint3_linear_23_3)"/>
<rect x="368.323" y="219.968" width="17.3222" height="236.16" transform="rotate(45 368.323 219.968)" fill="url(#paint4_linear_23_3)"/>
<rect x="297.228" y="409" width="4.24633" height="162.531" transform="rotate(45 297.228 409)" fill="url(#paint5_linear_23_3)"/>
<rect x="34.2278" y="350" width="4.24633" height="162.531" transform="rotate(45 34.2278 350)" fill="url(#paint6_linear_23_3)"/>
<rect x="112.746" y="777.616" width="9.97593" height="285.313" transform="rotate(45 112.746 777.616)" fill="url(#paint7_linear_23_3)"/>
<rect opacity="0.6" x="340.831" y="815" width="45.3341" height="178.94" transform="rotate(45 340.831 815)" fill="url(#paint8_linear_23_3)"/>
<rect x="22.3103" y="522.52" width="9.86137" height="156.991" transform="rotate(45 22.3103 522.52)" fill="url(#paint9_linear_23_3)"/>
<rect x="136.121" y="331.139" width="6.02211" height="203.136" transform="rotate(45 136.121 331.139)" fill="url(#paint10_linear_23_3)"/>
<path d="M409.785 391.184L302.427 498.542C290.376 510.594 268.437 508.194 253.425 493.182C238.413 478.17 236.012 456.23 248.064 444.179L355.422 336.821C367.473 324.77 389.412 327.17 404.424 342.182C419.436 357.194 421.837 379.133 409.785 391.184Z" fill="url(#paint11_linear_23_3)"/>
<rect x="165.191" y="846.036" width="5.62958" height="247.332" transform="rotate(45 165.191 846.036)" fill="url(#paint12_linear_23_3)"/>
<rect x="417.321" y="831" width="13.6077" height="189.533" transform="rotate(45 417.321 831)" fill="url(#paint13_linear_23_3)"/>
<path d="M-32.7246 964.244L119.132 812.387C136.179 795.34 179.355 810.879 215.569 847.093C251.783 883.307 267.322 926.483 250.275 943.53L98.4184 1095.39C81.3721 1112.43 38.1958 1096.89 1.9817 1060.68C-34.2324 1024.47 -49.771 981.29 -32.7246 964.244Z" fill="url(#paint14_linear_23_3)"/>
<path d="M-32.8337 119.722L119.023 -32.1345C136.07 -49.1813 168.693 -44.1957 191.889 -20.9996C215.085 2.19648 220.07 34.8194 203.024 51.8662L51.167 203.723C34.1206 220.769 1.49754 215.784 -21.6986 192.588C-44.8947 169.392 -49.88 136.769 -32.8337 119.722Z" fill="url(#paint15_linear_23_3)"/>
<rect x="162.192" y="5" width="5.62958" height="247.332" transform="rotate(45 162.192 5)" fill="url(#paint16_linear_23_3)"/>
<rect x="881.173" y="123" width="44.3766" height="161.039" transform="rotate(45 881.173 123)" fill="url(#paint17_linear_23_3)"/>
<rect x="689.854" y="472.552" width="8.6172" height="269.17" transform="rotate(45 689.854 472.552)" fill="url(#paint18_linear_23_3)"/>
<rect x="666.248" y="578.717" width="9.69068" height="284.181" transform="rotate(45 666.248 578.717)" fill="url(#paint19_linear_23_3)"/>
<rect x="815.821" y="666.856" width="3.16444" height="294.365" transform="rotate(45 815.821 666.856)" fill="url(#paint20_linear_23_3)"/>
<rect x="889.323" y="219.968" width="17.3222" height="236.16" transform="rotate(45 889.323 219.968)" fill="url(#paint21_linear_23_3)"/>
<rect x="818.228" y="409" width="4.24633" height="162.531" transform="rotate(45 818.228 409)" fill="url(#paint22_linear_23_3)"/>
<rect x="555.228" y="350" width="4.24633" height="162.531" transform="rotate(45 555.228 350)" fill="url(#paint23_linear_23_3)"/>
<rect x="673.686" y="737.677" width="9.97593" height="341.795" transform="rotate(45 673.686 737.677)" fill="url(#paint24_linear_23_3)"/>
<rect opacity="0.6" x="861.831" y="815" width="45.3341" height="178.94" transform="rotate(45 861.831 815)" fill="url(#paint25_linear_23_3)"/>
<rect x="543.31" y="522.52" width="9.86137" height="292.99" transform="rotate(45 543.31 522.52)" fill="url(#paint26_linear_23_3)"/>
<rect x="657.121" y="331.139" width="6.02211" height="203.136" transform="rotate(45 657.121 331.139)" fill="url(#paint27_linear_23_3)"/>
<path d="M930.785 391.184L823.427 498.542C811.376 510.594 789.437 508.194 774.425 493.182C759.413 478.169 757.012 456.23 769.064 444.179L876.422 336.821C888.473 324.769 910.412 327.17 925.424 342.182C940.436 357.194 942.837 379.133 930.785 391.184Z" fill="url(#paint28_linear_23_3)"/>
<rect x="686.191" y="846.036" width="5.62958" height="247.332" transform="rotate(45 686.191 846.036)" fill="url(#paint29_linear_23_3)"/>
<rect x="938.321" y="831" width="13.6077" height="189.533" transform="rotate(45 938.321 831)" fill="url(#paint30_linear_23_3)"/>
<path d="M488.275 964.244L640.132 812.387C657.179 795.34 700.355 810.879 736.569 847.093C772.783 883.307 788.322 926.483 771.275 943.53L619.418 1095.39C602.372 1112.43 559.196 1096.89 522.982 1060.68C486.768 1024.47 471.229 981.29 488.275 964.244Z" fill="url(#paint31_linear_23_3)"/>
<path d="M488.166 119.722L640.023 -32.1347C657.07 -49.1815 689.693 -44.196 712.889 -20.9999C736.085 2.19624 741.07 34.8191 724.024 51.8659L572.167 203.723C555.121 220.769 522.498 215.784 499.301 192.588C476.105 169.391 471.12 136.768 488.166 119.722Z" fill="url(#paint32_linear_23_3)"/>
<rect x="683.192" y="5.00012" width="5.62958" height="247.332" transform="rotate(45 683.192 5.00012)" fill="url(#paint33_linear_23_3)"/>
<rect x="1402.17" y="123" width="44.3766" height="161.039" transform="rotate(45 1402.17 123)" fill="url(#paint34_linear_23_3)"/>
<rect x="1210.85" y="472.552" width="8.6172" height="269.17" transform="rotate(45 1210.85 472.552)" fill="url(#paint35_linear_23_3)"/>
<rect x="1181.97" y="624" width="9.69068" height="314.053" transform="rotate(45 1181.97 624)" fill="url(#paint36_linear_23_3)"/>
<rect x="1336.82" y="666.856" width="3.16444" height="294.365" transform="rotate(45 1336.82 666.856)" fill="url(#paint37_linear_23_3)"/>
<rect x="1410.32" y="219.968" width="17.3222" height="236.16" transform="rotate(45 1410.32 219.968)" fill="url(#paint38_linear_23_3)"/>
<rect x="1339.23" y="409" width="4.24633" height="162.531" transform="rotate(45 1339.23 409)" fill="url(#paint39_linear_23_3)"/>
<rect x="1076.23" y="350" width="4.24633" height="162.531" transform="rotate(45 1076.23 350)" fill="url(#paint40_linear_23_3)"/>
<rect x="1154.75" y="777.616" width="9.97593" height="285.313" transform="rotate(45 1154.75 777.616)" fill="url(#paint41_linear_23_3)"/>
<rect opacity="0.6" x="1382.83" y="815" width="45.3341" height="178.94" transform="rotate(45 1382.83 815)" fill="url(#paint42_linear_23_3)"/>
<rect x="1103.91" y="482.922" width="9.86137" height="212.992" transform="rotate(45 1103.91 482.922)" fill="url(#paint43_linear_23_3)"/>
<rect x="1178.12" y="331.139" width="6.02211" height="203.136" transform="rotate(45 1178.12 331.139)" fill="url(#paint44_linear_23_3)"/>
<path d="M1451.79 391.184L1344.43 498.542C1332.38 510.594 1310.44 508.194 1295.42 493.182C1280.41 478.17 1278.01 456.23 1290.06 444.179L1397.42 336.821C1409.47 324.77 1431.41 327.17 1446.42 342.182C1461.44 357.194 1463.84 379.133 1451.79 391.184Z" fill="url(#paint45_linear_23_3)"/>
<rect x="1207.19" y="846.036" width="5.62958" height="247.332" transform="rotate(45 1207.19 846.036)" fill="url(#paint46_linear_23_3)"/>
<rect x="1459.32" y="831" width="13.6077" height="189.533" transform="rotate(45 1459.32 831)" fill="url(#paint47_linear_23_3)"/>
<path d="M1009.28 964.244L1161.13 812.387C1178.18 795.34 1221.36 810.879 1257.57 847.093C1293.78 883.307 1309.32 926.483 1292.28 943.53L1140.42 1095.39C1123.37 1112.43 1080.2 1096.89 1043.98 1060.68C1007.77 1024.47 992.229 981.29 1009.28 964.244Z" fill="url(#paint48_linear_23_3)"/>
<path d="M1009.17 119.722L1161.02 -32.1345C1178.07 -49.1813 1210.69 -44.1957 1233.89 -20.9996C1257.08 2.19648 1262.07 34.8194 1245.02 51.8662L1093.17 203.723C1076.12 220.769 1043.5 215.784 1020.3 192.588C997.105 169.392 992.12 136.769 1009.17 119.722Z" fill="url(#paint49_linear_23_3)"/>
<rect x="1204.19" y="5" width="5.62958" height="247.332" transform="rotate(45 1204.19 5)" fill="url(#paint50_linear_23_3)"/>
</g>
<defs>
<linearGradient id="paint0_linear_23_3" x1="382.361" y1="123" x2="383.066" y2="274.589" gradientUnits="userSpaceOnUse">
<stop stop-color="#1EC8CD"/>
<stop offset="0.232236" stop-color="#1EC8CD" stop-opacity="0.601541"/>
<stop offset="1" stop-color="#1EC8CD" stop-opacity="0"/>
</linearGradient>
<linearGradient id="paint1_linear_23_3" x1="173.162" y1="472.552" x2="183.286" y2="725.528" gradientUnits="userSpaceOnUse">
<stop stop-color="#1EC8CD"/>
<stop offset="0.232236" stop-color="#1EC8CD" stop-opacity="0.601541"/>
<stop offset="1" stop-color="#1EC8CD" stop-opacity="0"/>
</linearGradient>
<linearGradient id="paint2_linear_23_3" x1="94.8534" y1="567.648" x2="97.3283" y2="793.569" gradientUnits="userSpaceOnUse">
<stop stop-color="#FFBB25"/>
<stop offset="1" stop-color="#FFBB25" stop-opacity="0"/>
</linearGradient>
<linearGradient id="paint3_linear_23_3" x1="296.403" y1="666.856" x2="328.964" y2="940.073" gradientUnits="userSpaceOnUse">
<stop stop-color="#1EC8CD"/>
<stop offset="0.232236" stop-color="#1EC8CD" stop-opacity="0.601541"/>
<stop offset="1" stop-color="#1EC8CD" stop-opacity="0"/>
</linearGradient>
<linearGradient id="paint4_linear_23_3" x1="376.984" y1="219.968" x2="380.866" y2="442.207" gradientUnits="userSpaceOnUse">
<stop stop-color="#1EC8CD"/>
<stop offset="0.232236" stop-color="#1EC8CD" stop-opacity="0.601541"/>
<stop offset="1" stop-color="#1EC8CD" stop-opacity="0"/>
</linearGradient>
<linearGradient id="paint5_linear_23_3" x1="299.351" y1="409" x2="306.835" y2="561.63" gradientUnits="userSpaceOnUse">
<stop stop-color="#1EC8CD"/>
<stop offset="0.232236" stop-color="#1EC8CD" stop-opacity="0.601541"/>
<stop offset="1" stop-color="#1EC8CD" stop-opacity="0"/>
</linearGradient>
<linearGradient id="paint6_linear_23_3" x1="36.3509" y1="350" x2="43.8354" y2="502.63" gradientUnits="userSpaceOnUse">
<stop stop-color="#1EC8CD"/>
<stop offset="0.232236" stop-color="#1EC8CD" stop-opacity="0.601541"/>
<stop offset="1" stop-color="#1EC8CD" stop-opacity="0"/>
</linearGradient>
<linearGradient id="paint7_linear_23_3" x1="117.779" y1="685.718" x2="122.39" y2="998.591" gradientUnits="userSpaceOnUse">
<stop stop-color="#FFBB25"/>
<stop offset="1" stop-color="#FFBB25" stop-opacity="0"/>
</linearGradient>
<linearGradient id="paint8_linear_23_3" x1="363.498" y1="815" x2="363.498" y2="993.94" gradientUnits="userSpaceOnUse">
<stop stop-color="#022335"/>
<stop offset="1" stop-color="#022335" stop-opacity="0"/>
</linearGradient>
<linearGradient id="paint9_linear_23_3" x1="27.2847" y1="471.954" x2="28.6973" y2="644.135" gradientUnits="userSpaceOnUse">
<stop stop-color="#FFBB25"/>
<stop offset="1" stop-color="#FFBB25" stop-opacity="0"/>
</linearGradient>
<linearGradient id="paint10_linear_23_3" x1="139.158" y1="265.71" x2="143.03" y2="488.449" gradientUnits="userSpaceOnUse">
<stop stop-color="#FFBB25"/>
<stop offset="1" stop-color="#FFBB25" stop-opacity="0"/>
</linearGradient>
<linearGradient id="paint11_linear_23_3" x1="501.684" y1="251.182" x2="246.285" y2="485.396" gradientUnits="userSpaceOnUse">
<stop stop-color="#A78142"/>
<stop offset="1" stop-color="#A78142" stop-opacity="0"/>
</linearGradient>
<linearGradient id="paint12_linear_23_3" x1="168.006" y1="846.036" x2="181.07" y2="1078.12" gradientUnits="userSpaceOnUse">
<stop stop-color="#1EC8CD"/>
<stop offset="0.232236" stop-color="#1EC8CD" stop-opacity="0.601541"/>
<stop offset="1" stop-color="#1EC8CD" stop-opacity="0"/>
</linearGradient>
<linearGradient id="paint13_linear_23_3" x1="424.125" y1="831" x2="427.307" y2="1009.36" gradientUnits="userSpaceOnUse">
<stop stop-color="#1EC8CD"/>
<stop offset="0.232236" stop-color="#1EC8CD" stop-opacity="0.601541"/>
<stop offset="1" stop-color="#1EC8CD" stop-opacity="0"/>
</linearGradient>
<linearGradient id="paint14_linear_23_3" x1="-138.714" y1="1186.27" x2="216.783" y2="848.37" gradientUnits="userSpaceOnUse">
<stop stop-color="#A78142"/>
<stop offset="1" stop-color="#A78142" stop-opacity="0"/>
</linearGradient>
<linearGradient id="paint15_linear_23_3" x1="-159.68" y1="320.896" x2="200.421" y2="-11.7642" gradientUnits="userSpaceOnUse">
<stop stop-color="#A78142"/>
<stop offset="1" stop-color="#A78142" stop-opacity="0"/>
</linearGradient>
<linearGradient id="paint16_linear_23_3" x1="165.006" y1="5" x2="178.07" y2="237.089" gradientUnits="userSpaceOnUse">
<stop stop-color="#1EC8CD"/>
<stop offset="0.232236" stop-color="#1EC8CD" stop-opacity="0.601541"/>
<stop offset="1" stop-color="#1EC8CD" stop-opacity="0"/>
</linearGradient>
<linearGradient id="paint17_linear_23_3" x1="903.361" y1="123" x2="904.066" y2="274.589" gradientUnits="userSpaceOnUse">
<stop stop-color="#1EC8CD"/>
<stop offset="0.232236" stop-color="#1EC8CD" stop-opacity="0.601541"/>
<stop offset="1" stop-color="#1EC8CD" stop-opacity="0"/>
</linearGradient>
<linearGradient id="paint18_linear_23_3" x1="694.162" y1="472.552" x2="704.286" y2="725.528" gradientUnits="userSpaceOnUse">
<stop stop-color="#1EC8CD"/>
<stop offset="0.232236" stop-color="#1EC8CD" stop-opacity="0.601541"/>
<stop offset="1" stop-color="#1EC8CD" stop-opacity="0"/>
</linearGradient>
<linearGradient id="paint19_linear_23_3" x1="671.136" y1="487.183" x2="675.845" y2="798.812" gradientUnits="userSpaceOnUse">
<stop stop-color="#FFBB25"/>
<stop offset="1" stop-color="#FFBB25" stop-opacity="0"/>
</linearGradient>
<linearGradient id="paint20_linear_23_3" x1="817.403" y1="666.856" x2="849.964" y2="940.073" gradientUnits="userSpaceOnUse">
<stop stop-color="#1EC8CD"/>
<stop offset="0.232236" stop-color="#1EC8CD" stop-opacity="0.601541"/>
<stop offset="1" stop-color="#1EC8CD" stop-opacity="0"/>
</linearGradient>
<linearGradient id="paint21_linear_23_3" x1="897.984" y1="219.968" x2="901.866" y2="442.207" gradientUnits="userSpaceOnUse">
<stop stop-color="#1EC8CD"/>
<stop offset="0.232236" stop-color="#1EC8CD" stop-opacity="0.601541"/>
<stop offset="1" stop-color="#1EC8CD" stop-opacity="0"/>
</linearGradient>
<linearGradient id="paint22_linear_23_3" x1="820.351" y1="409" x2="827.835" y2="561.63" gradientUnits="userSpaceOnUse">
<stop stop-color="#1EC8CD"/>
<stop offset="0.232236" stop-color="#1EC8CD" stop-opacity="0.601541"/>
<stop offset="1" stop-color="#1EC8CD" stop-opacity="0"/>
</linearGradient>
<linearGradient id="paint23_linear_23_3" x1="557.351" y1="350" x2="564.835" y2="502.63" gradientUnits="userSpaceOnUse">
<stop stop-color="#1EC8CD"/>
<stop offset="0.232236" stop-color="#1EC8CD" stop-opacity="0.601541"/>
<stop offset="1" stop-color="#1EC8CD" stop-opacity="0"/>
</linearGradient>
<linearGradient id="paint24_linear_23_3" x1="678.718" y1="627.586" x2="685.335" y2="1002.36" gradientUnits="userSpaceOnUse">
<stop stop-color="#FFBB25"/>
<stop offset="1" stop-color="#FFBB25" stop-opacity="0"/>
</linearGradient>
<linearGradient id="paint25_linear_23_3" x1="884.498" y1="815" x2="884.498" y2="993.94" gradientUnits="userSpaceOnUse">
<stop stop-color="#022335"/>
<stop offset="1" stop-color="#022335" stop-opacity="0"/>
</linearGradient>
<linearGradient id="paint26_linear_23_3" x1="548.285" y1="428.149" x2="553.204" y2="749.435" gradientUnits="userSpaceOnUse">
<stop stop-color="#FFBB25"/>
<stop offset="1" stop-color="#FFBB25" stop-opacity="0"/>
</linearGradient>
<linearGradient id="paint27_linear_23_3" x1="660.158" y1="265.71" x2="664.03" y2="488.448" gradientUnits="userSpaceOnUse">
<stop stop-color="#FFBB25"/>
<stop offset="1" stop-color="#FFBB25" stop-opacity="0"/>
</linearGradient>
<linearGradient id="paint28_linear_23_3" x1="1022.68" y1="251.182" x2="767.285" y2="485.396" gradientUnits="userSpaceOnUse">
<stop stop-color="#A78142"/>
<stop offset="1" stop-color="#A78142" stop-opacity="0"/>
</linearGradient>
<linearGradient id="paint29_linear_23_3" x1="689.006" y1="846.036" x2="702.07" y2="1078.12" gradientUnits="userSpaceOnUse">
<stop stop-color="#1EC8CD"/>
<stop offset="0.232236" stop-color="#1EC8CD" stop-opacity="0.601541"/>
<stop offset="1" stop-color="#1EC8CD" stop-opacity="0"/>
</linearGradient>
<linearGradient id="paint30_linear_23_3" x1="945.125" y1="831" x2="948.307" y2="1009.36" gradientUnits="userSpaceOnUse">
<stop stop-color="#1EC8CD"/>
<stop offset="0.232236" stop-color="#1EC8CD" stop-opacity="0.601541"/>
<stop offset="1" stop-color="#1EC8CD" stop-opacity="0"/>
</linearGradient>
<linearGradient id="paint31_linear_23_3" x1="382.286" y1="1186.27" x2="737.783" y2="848.37" gradientUnits="userSpaceOnUse">
<stop stop-color="#A78142"/>
<stop offset="1" stop-color="#A78142" stop-opacity="0"/>
</linearGradient>
<linearGradient id="paint32_linear_23_3" x1="361.32" y1="320.896" x2="721.421" y2="-11.7645" gradientUnits="userSpaceOnUse">
<stop stop-color="#A78142"/>
<stop offset="1" stop-color="#A78142" stop-opacity="0"/>
</linearGradient>
<linearGradient id="paint33_linear_23_3" x1="686.006" y1="5.00012" x2="699.07" y2="237.089" gradientUnits="userSpaceOnUse">
<stop stop-color="#1EC8CD"/>
<stop offset="0.232236" stop-color="#1EC8CD" stop-opacity="0.601541"/>
<stop offset="1" stop-color="#1EC8CD" stop-opacity="0"/>
</linearGradient>
<linearGradient id="paint34_linear_23_3" x1="1424.36" y1="123" x2="1425.07" y2="274.589" gradientUnits="userSpaceOnUse">
<stop stop-color="#1EC8CD"/>
<stop offset="0.232236" stop-color="#1EC8CD" stop-opacity="0.601541"/>
<stop offset="1" stop-color="#1EC8CD" stop-opacity="0"/>
</linearGradient>
<linearGradient id="paint35_linear_23_3" x1="1215.16" y1="472.552" x2="1225.29" y2="725.528" gradientUnits="userSpaceOnUse">
<stop stop-color="#1EC8CD"/>
<stop offset="0.232236" stop-color="#1EC8CD" stop-opacity="0.601541"/>
<stop offset="1" stop-color="#1EC8CD" stop-opacity="0"/>
</linearGradient>
<linearGradient id="paint36_linear_23_3" x1="1186.85" y1="522.845" x2="1192.6" y2="867.212" gradientUnits="userSpaceOnUse">
<stop stop-color="#FFBB25"/>
<stop offset="1" stop-color="#FFBB25" stop-opacity="0"/>
</linearGradient>
<linearGradient id="paint37_linear_23_3" x1="1338.4" y1="666.856" x2="1370.96" y2="940.073" gradientUnits="userSpaceOnUse">
<stop stop-color="#1EC8CD"/>
<stop offset="0.232236" stop-color="#1EC8CD" stop-opacity="0.601541"/>
<stop offset="1" stop-color="#1EC8CD" stop-opacity="0"/>
</linearGradient>
<linearGradient id="paint38_linear_23_3" x1="1418.98" y1="219.968" x2="1422.87" y2="442.207" gradientUnits="userSpaceOnUse">
<stop stop-color="#1EC8CD"/>
<stop offset="0.232236" stop-color="#1EC8CD" stop-opacity="0.601541"/>
<stop offset="1" stop-color="#1EC8CD" stop-opacity="0"/>
</linearGradient>
<linearGradient id="paint39_linear_23_3" x1="1341.35" y1="409" x2="1348.84" y2="561.63" gradientUnits="userSpaceOnUse">
<stop stop-color="#1EC8CD"/>
<stop offset="0.232236" stop-color="#1EC8CD" stop-opacity="0.601541"/>
<stop offset="1" stop-color="#1EC8CD" stop-opacity="0"/>
</linearGradient>
<linearGradient id="paint40_linear_23_3" x1="1078.35" y1="350" x2="1085.84" y2="502.63" gradientUnits="userSpaceOnUse">
<stop stop-color="#1EC8CD"/>
<stop offset="0.232236" stop-color="#1EC8CD" stop-opacity="0.601541"/>
<stop offset="1" stop-color="#1EC8CD" stop-opacity="0"/>
</linearGradient>
<linearGradient id="paint41_linear_23_3" x1="1159.78" y1="685.718" x2="1164.39" y2="998.591" gradientUnits="userSpaceOnUse">
<stop stop-color="#FFBB25"/>
<stop offset="1" stop-color="#FFBB25" stop-opacity="0"/>
</linearGradient>
<linearGradient id="paint42_linear_23_3" x1="1405.5" y1="815" x2="1405.5" y2="993.94" gradientUnits="userSpaceOnUse">
<stop stop-color="#022335"/>
<stop offset="1" stop-color="#022335" stop-opacity="0"/>
</linearGradient>
<linearGradient id="paint43_linear_23_3" x1="1108.88" y1="414.318" x2="1111.48" y2="647.905" gradientUnits="userSpaceOnUse">
<stop stop-color="#FFBB25"/>
<stop offset="1" stop-color="#FFBB25" stop-opacity="0"/>
</linearGradient>
<linearGradient id="paint44_linear_23_3" x1="1181.16" y1="265.71" x2="1185.03" y2="488.449" gradientUnits="userSpaceOnUse">
<stop stop-color="#FFBB25"/>
<stop offset="1" stop-color="#FFBB25" stop-opacity="0"/>
</linearGradient>
<linearGradient id="paint45_linear_23_3" x1="1543.68" y1="251.182" x2="1288.29" y2="485.396" gradientUnits="userSpaceOnUse">
<stop stop-color="#A78142"/>
<stop offset="1" stop-color="#A78142" stop-opacity="0"/>
</linearGradient>
<linearGradient id="paint46_linear_23_3" x1="1210.01" y1="846.036" x2="1223.07" y2="1078.12" gradientUnits="userSpaceOnUse">
<stop stop-color="#1EC8CD"/>
<stop offset="0.232236" stop-color="#1EC8CD" stop-opacity="0.601541"/>
<stop offset="1" stop-color="#1EC8CD" stop-opacity="0"/>
</linearGradient>
<linearGradient id="paint47_linear_23_3" x1="1466.12" y1="831" x2="1469.31" y2="1009.36" gradientUnits="userSpaceOnUse">
<stop stop-color="#1EC8CD"/>
<stop offset="0.232236" stop-color="#1EC8CD" stop-opacity="0.601541"/>
<stop offset="1" stop-color="#1EC8CD" stop-opacity="0"/>
</linearGradient>
<linearGradient id="paint48_linear_23_3" x1="903.286" y1="1186.27" x2="1258.78" y2="848.37" gradientUnits="userSpaceOnUse">
<stop stop-color="#A78142"/>
<stop offset="1" stop-color="#A78142" stop-opacity="0"/>
</linearGradient>
<linearGradient id="paint49_linear_23_3" x1="882.32" y1="320.896" x2="1242.42" y2="-11.7642" gradientUnits="userSpaceOnUse">
<stop stop-color="#A78142"/>
<stop offset="1" stop-color="#A78142" stop-opacity="0"/>
</linearGradient>
<linearGradient id="paint50_linear_23_3" x1="1207.01" y1="5" x2="1220.07" y2="237.089" gradientUnits="userSpaceOnUse">
<stop stop-color="#1EC8CD"/>
<stop offset="0.232236" stop-color="#1EC8CD" stop-opacity="0.601541"/>
<stop offset="1" stop-color="#1EC8CD" stop-opacity="0"/>
</linearGradient>
<clipPath id="clip0_23_3">
<rect width="1440" height="1024" fill="white"/>
</clipPath>
</defs>
</svg>
